<svg id="svg" version="1.1" xmlns="http://www.w3.org/2000/svg" xmlns:xlink="http://www.w3.org/1999/xlink" width="400" height="400" viewBox="0, 0, 400,400"><g id="svgg"><path id="path0" d="M75.301 149.882 C 74.306 150.074,73.638 151.798,74.301 152.461 C 74.522 152.682,75.981 153.023,77.544 153.219 C 81.752 153.748,83.759 154.957,85.812 158.200 C 86.833 159.813,88.797 163.958,88.814 164.536 C 88.821 164.791,89.175 165.720,89.600 166.600 C 90.025 167.480,90.379 168.360,90.386 168.556 C 90.394 168.752,90.749 169.652,91.175 170.556 C 91.601 171.460,92.056 172.857,92.185 173.660 C 92.315 174.463,92.686 175.340,93.011 175.609 C 93.335 175.878,93.600 176.682,93.600 177.395 C 93.600 178.108,93.934 179.121,94.342 179.646 C 94.750 180.171,95.216 181.320,95.378 182.200 C 95.539 183.080,95.836 183.999,96.037 184.243 C 96.405 184.688,97.565 187.842,98.596 191.200 C 99.588 194.429,100.494 196.970,101.235 198.600 C 101.635 199.480,102.066 200.857,102.192 201.660 C 102.318 202.463,102.664 203.321,102.961 203.567 C 103.257 203.814,103.617 204.744,103.759 205.636 C 103.902 206.527,104.267 207.649,104.570 208.128 C 104.873 208.608,105.253 209.627,105.413 210.394 C 105.574 211.161,105.934 212.151,106.213 212.594 C 106.493 213.037,106.847 214.030,107.000 214.800 C 107.153 215.570,107.518 216.579,107.810 217.042 C 108.103 217.504,108.467 218.584,108.620 219.442 C 108.772 220.299,109.235 221.561,109.649 222.247 C 110.062 222.933,110.400 223.985,110.400 224.584 C 110.400 225.183,110.760 226.131,111.200 226.691 C 111.640 227.250,112.000 228.055,112.000 228.480 C 112.000 228.904,112.333 230.095,112.739 231.126 C 113.146 232.157,113.703 233.630,113.978 234.400 C 114.252 235.170,114.921 236.970,115.464 238.400 C 116.006 239.830,116.622 241.720,116.831 242.600 C 117.041 243.480,117.682 245.145,118.254 246.300 L 119.295 248.400 123.998 248.400 C 129.827 248.400,131.200 248.159,131.200 247.137 C 131.200 246.718,131.500 245.705,131.866 244.887 C 132.232 244.069,132.756 242.680,133.029 241.800 C 133.303 240.920,134.100 238.670,134.800 236.800 C 135.500 234.930,136.208 232.860,136.373 232.200 C 136.538 231.540,136.972 230.424,137.337 229.720 C 137.701 229.016,138.000 228.199,138.000 227.904 C 138.000 227.610,138.360 226.663,138.800 225.800 C 139.240 224.937,139.600 223.861,139.600 223.409 C 139.600 222.958,139.936 221.961,140.347 221.194 C 140.757 220.427,141.228 219.170,141.393 218.400 C 141.558 217.630,141.927 216.550,142.214 216.000 C 142.772 214.932,143.722 212.195,144.610 209.097 C 144.911 208.051,145.295 206.971,145.466 206.697 C 145.787 206.181,147.359 201.895,147.997 199.800 C 148.325 198.720,149.198 196.288,151.657 189.600 C 152.102 188.390,152.712 186.540,153.013 185.490 C 154.267 181.113,157.200 179.711,157.200 183.489 C 157.200 183.897,157.560 184.937,158.000 185.800 C 158.440 186.663,158.800 187.777,158.800 188.275 C 158.800 188.773,159.159 189.770,159.599 190.490 C 160.038 191.211,160.398 192.312,160.399 192.937 C 160.399 193.562,160.760 194.531,161.200 195.091 C 161.640 195.650,162.000 196.647,162.000 197.307 C 162.000 197.966,162.338 199.067,162.751 199.753 C 163.165 200.439,163.628 201.720,163.781 202.600 C 163.934 203.480,164.312 204.592,164.620 205.072 C 164.929 205.551,165.300 206.721,165.444 207.672 C 165.588 208.622,165.944 209.675,166.234 210.010 C 166.524 210.346,166.884 211.426,167.034 212.410 C 167.184 213.395,167.552 214.484,167.852 214.830 C 168.153 215.177,168.555 216.300,168.747 217.326 C 168.938 218.352,169.289 219.426,169.527 219.712 C 169.764 219.998,170.135 220.944,170.352 221.816 C 170.569 222.687,171.059 224.300,171.442 225.400 C 171.825 226.500,172.446 228.300,172.822 229.400 C 173.197 230.500,173.724 232.030,173.992 232.800 C 174.260 233.570,175.116 236.090,175.895 238.400 C 176.674 240.710,177.646 243.443,178.056 244.474 C 178.465 245.505,178.800 246.634,178.800 246.984 C 178.800 248.028,180.586 248.400,185.597 248.400 C 190.486 248.400,191.600 248.060,191.600 246.570 C 191.600 246.255,191.960 245.325,192.400 244.504 C 192.840 243.684,193.200 242.734,193.200 242.395 C 193.200 242.056,193.442 241.423,193.737 240.989 C 194.032 240.555,194.471 239.480,194.711 238.600 C 195.132 237.057,196.165 234.225,197.994 229.600 C 198.472 228.390,199.279 226.230,199.786 224.800 C 201.258 220.650,201.697 219.502,202.471 217.774 C 202.872 216.879,203.200 215.884,203.200 215.563 C 203.200 215.241,203.447 214.623,203.749 214.189 C 204.051 213.755,204.435 212.770,204.602 212.000 C 204.770 211.230,205.243 209.973,205.653 209.206 C 206.064 208.439,206.400 207.485,206.400 207.085 C 206.400 206.685,206.743 205.693,207.163 204.879 C 207.582 204.066,208.278 202.410,208.709 201.200 C 210.159 197.128,211.700 193.024,213.255 189.092 C 214.105 186.942,214.800 184.960,214.800 184.686 C 214.800 184.412,215.160 183.516,215.600 182.696 C 216.040 181.875,216.400 180.885,216.400 180.496 C 216.400 180.106,216.760 179.116,217.200 178.296 C 217.640 177.475,218.000 176.604,218.000 176.362 C 218.000 176.119,218.262 175.354,218.582 174.660 C 219.135 173.464,219.620 172.190,221.005 168.300 C 221.338 167.365,221.878 166.122,222.205 165.538 C 222.532 164.954,222.806 164.234,222.813 163.938 C 222.830 163.188,224.888 159.123,225.904 157.831 C 227.128 156.275,229.531 154.759,231.172 154.508 C 231.957 154.387,232.810 154.125,233.066 153.924 C 233.322 153.723,234.821 153.421,236.397 153.252 C 239.799 152.889,241.093 151.254,239.046 149.906 C 238.047 149.248,206.103 149.554,205.429 150.229 C 203.598 152.059,205.025 153.200,209.142 153.200 C 215.549 153.200,219.345 156.494,218.066 160.945 C 217.804 161.855,217.403 163.680,217.175 165.000 C 216.946 166.320,216.561 167.756,216.320 168.191 C 216.078 168.626,215.647 169.796,215.363 170.791 C 214.692 173.143,213.071 177.560,212.471 178.674 C 212.212 179.154,212.000 179.877,212.000 180.280 C 212.000 180.682,211.640 181.684,211.200 182.504 C 210.760 183.325,210.400 184.230,210.400 184.514 C 210.400 184.798,210.054 185.709,209.631 186.539 C 209.208 187.368,208.744 188.746,208.600 189.600 C 208.456 190.455,208.100 191.351,207.811 191.591 C 207.521 191.832,207.159 192.694,207.006 193.507 C 206.854 194.320,206.523 195.349,206.271 195.793 C 206.019 196.237,205.599 197.410,205.337 198.400 C 203.879 203.912,201.711 208.880,200.838 208.712 C 200.180 208.585,199.039 205.870,198.167 202.355 C 197.860 201.120,197.338 199.590,197.007 198.955 C 196.676 198.320,196.404 197.437,196.402 196.994 C 196.401 196.551,196.064 195.561,195.653 194.794 C 195.243 194.027,194.769 192.773,194.601 192.006 C 194.433 191.239,194.062 190.249,193.777 189.806 C 193.492 189.363,193.133 188.280,192.979 187.400 C 192.825 186.520,192.467 185.530,192.183 185.200 C 191.900 184.870,191.537 183.880,191.378 183.000 C 191.219 182.120,190.774 180.770,190.388 180.000 C 190.003 179.230,189.488 178.015,189.244 177.300 C 189.000 176.585,188.599 175.415,188.352 174.700 C 188.106 173.985,187.597 172.500,187.222 171.400 C 186.846 170.300,186.216 168.500,185.821 167.400 C 184.592 163.975,183.760 157.545,184.359 156.099 C 185.002 154.546,187.422 153.593,191.600 153.248 C 194.772 152.986,195.784 151.868,194.380 150.176 C 193.503 149.119,136.664 149.336,135.600 150.400 C 134.093 151.907,134.857 152.858,137.867 153.219 C 142.261 153.748,147.196 157.572,147.199 160.451 C 147.200 160.809,147.458 161.317,147.774 161.579 C 148.090 161.841,148.461 162.565,148.597 163.189 C 148.734 163.812,149.196 165.008,149.623 165.846 C 150.050 166.684,150.404 167.736,150.409 168.185 C 150.414 168.633,150.770 169.450,151.200 170.000 C 151.630 170.550,151.986 171.264,151.991 171.587 C 151.996 171.909,152.300 172.959,152.667 173.919 C 153.289 175.549,153.289 175.741,152.667 176.795 C 152.300 177.415,151.994 178.256,151.986 178.662 C 151.979 179.068,151.625 180.120,151.200 181.000 C 150.775 181.880,150.421 182.911,150.414 183.292 C 150.406 183.672,149.700 185.742,148.844 187.892 C 147.311 191.741,146.558 193.857,145.319 197.800 C 144.974 198.900,144.558 199.890,144.396 200.000 C 144.233 200.110,143.964 200.830,143.797 201.600 C 143.630 202.370,143.157 203.627,142.747 204.394 C 142.336 205.161,142.000 206.028,142.000 206.320 C 142.000 208.374,140.231 208.764,139.801 206.806 C 139.665 206.186,139.204 204.992,138.777 204.154 C 138.350 203.316,138.000 202.314,138.000 201.926 C 138.000 201.539,137.660 200.452,137.244 199.511 C 136.141 197.015,134.879 193.578,134.559 192.200 C 134.406 191.540,134.037 190.645,133.740 190.211 C 133.443 189.777,133.200 189.140,133.200 188.796 C 133.200 188.451,132.842 187.466,132.404 186.607 C 131.966 185.748,131.489 184.405,131.345 183.622 C 131.201 182.840,130.749 181.573,130.341 180.806 C 129.934 180.039,129.600 179.087,129.600 178.690 C 129.600 178.293,129.240 177.262,128.800 176.400 C 128.360 175.538,128.000 174.470,128.000 174.027 C 128.000 173.584,127.665 172.452,127.255 171.511 C 125.214 166.829,123.141 159.377,123.281 157.228 C 123.429 154.956,126.211 153.264,129.867 153.223 C 133.061 153.187,134.377 151.737,132.720 150.080 C 132.256 149.616,77.661 149.428,75.301 149.882 M242.172 150.568 C 241.630 152.729,241.948 152.980,245.604 153.266 C 250.833 153.676,252.738 154.551,254.200 157.215 L 255.400 159.400 255.400 198.600 L 255.400 237.800 254.460 239.820 C 253.029 242.895,251.914 243.442,245.894 244.019 C 241.100 244.479,240.774 244.564,240.559 245.423 C 239.912 248.000,237.237 247.800,272.405 247.800 L 304.200 247.800 304.323 246.527 C 304.493 244.771,303.735 244.455,298.116 243.942 C 292.742 243.451,292.097 243.127,290.729 240.232 L 289.800 238.265 289.800 198.348 L 289.800 158.430 290.778 156.640 C 292.064 154.285,294.787 153.203,299.441 153.195 C 303.905 153.187,304.471 152.985,304.321 151.449 C 304.146 149.652,304.994 149.700,272.108 149.647 L 242.415 149.600 242.172 150.568 " stroke="none" fill="#2a2f31" fill-rule="evenodd"></path><path id="path1" d="M0.000 200.000 L 0.000 400.000 200.000 400.000 L 400.000 400.000 400.000 200.000 L 400.000 0.000 200.000 0.000 L 0.000 0.000 0.000 200.000 M196.435 148.744 C 197.267 149.771,197.466 152.356,196.808 153.584 C 196.245 154.638,194.545 155.112,190.180 155.432 C 186.520 155.701,186.318 155.764,185.937 156.757 C 185.467 157.986,185.856 161.761,186.603 163.205 C 186.889 163.758,187.250 165.057,187.405 166.092 C 187.560 167.127,187.923 168.170,188.212 168.410 C 188.501 168.650,188.859 169.601,189.007 170.523 C 189.156 171.445,189.525 172.592,189.829 173.072 C 190.133 173.551,190.500 174.721,190.644 175.672 C 190.788 176.622,191.174 177.708,191.500 178.084 C 191.827 178.460,192.191 179.630,192.310 180.684 C 192.428 181.738,192.785 182.791,193.103 183.024 C 193.421 183.258,193.776 184.285,193.891 185.308 C 194.014 186.402,194.409 187.446,194.850 187.845 C 195.268 188.223,195.600 189.059,195.600 189.730 C 195.600 190.394,195.854 191.221,196.165 191.569 C 196.715 192.182,197.866 195.134,198.986 198.800 C 199.289 199.790,199.888 201.487,200.317 202.572 L 201.099 204.544 201.949 202.621 C 202.417 201.564,202.801 200.406,202.801 200.049 C 202.802 199.692,203.162 198.811,203.601 198.090 C 204.041 197.370,204.400 196.343,204.400 195.809 C 204.400 194.723,205.175 192.800,205.613 192.800 C 205.769 192.800,206.017 191.892,206.165 190.781 C 206.324 189.579,206.669 188.672,207.016 188.538 C 207.337 188.415,207.600 187.911,207.600 187.417 C 207.600 186.253,208.387 184.000,208.794 184.000 C 208.967 184.000,209.228 183.205,209.374 182.233 C 209.520 181.261,209.900 180.249,210.220 179.984 C 210.539 179.719,210.800 179.022,210.800 178.436 C 210.800 177.849,211.137 176.709,211.548 175.901 C 211.960 175.094,212.510 173.588,212.770 172.554 C 213.030 171.519,213.504 170.302,213.822 169.848 C 214.140 169.394,214.400 168.560,214.400 167.996 C 214.400 167.431,214.760 166.263,215.200 165.400 C 215.804 164.215,216.000 163.041,216.000 160.604 C 216.000 155.844,215.897 155.754,210.022 155.401 C 206.705 155.202,205.083 154.942,204.764 154.557 C 204.510 154.250,204.073 154.000,203.794 154.000 C 202.698 154.000,202.379 149.929,203.368 148.576 C 204.031 147.670,303.149 147.117,304.820 148.011 C 305.866 148.571,305.976 153.590,304.960 154.433 C 304.568 154.759,302.256 155.125,298.973 155.382 C 295.178 155.679,293.457 155.974,293.048 156.400 C 290.264 159.298,290.432 241.200,293.221 241.200 C 293.590 241.200,294.350 241.560,294.909 242.000 C 295.785 242.689,296.532 242.800,300.283 242.800 C 305.443 242.800,305.600 242.900,305.600 246.200 C 305.600 249.907,308.600 249.600,272.395 249.600 L 240.150 249.600 239.034 248.435 C 238.049 247.407,237.950 247.077,238.195 245.627 C 238.635 243.026,239.081 242.800,243.780 242.800 C 246.967 242.800,248.016 242.663,248.403 242.196 C 248.678 241.864,249.587 241.484,250.423 241.350 C 253.425 240.870,253.600 238.561,253.600 199.365 C 253.600 153.972,253.913 155.912,246.513 155.459 C 243.628 155.283,242.052 155.009,241.608 154.608 C 241.031 154.085,240.850 154.090,240.054 154.647 C 239.449 155.071,237.853 155.350,235.186 155.497 C 232.014 155.671,231.085 155.864,230.548 156.458 C 230.178 156.866,229.650 157.200,229.374 157.200 C 228.913 157.200,228.210 157.943,226.300 160.445 C 225.915 160.950,225.600 161.646,225.600 161.992 C 225.600 162.339,225.348 162.982,225.039 163.423 C 224.731 163.863,224.264 165.028,224.002 166.012 C 223.740 166.995,223.295 168.070,223.013 168.400 C 222.732 168.730,222.384 169.657,222.240 170.460 C 222.096 171.263,221.733 172.124,221.433 172.373 C 221.133 172.622,220.769 173.615,220.624 174.580 C 220.479 175.545,220.104 176.547,219.791 176.807 C 219.478 177.068,219.105 177.937,218.962 178.740 C 218.819 179.543,218.365 180.761,217.951 181.447 C 217.538 182.133,217.200 183.146,217.200 183.698 C 217.200 184.250,216.944 184.914,216.631 185.174 C 216.318 185.434,215.938 186.401,215.786 187.323 C 215.634 188.245,215.262 189.450,214.960 190.000 C 214.454 190.922,214.154 191.698,212.799 195.600 C 212.531 196.370,211.987 197.640,211.589 198.422 C 211.191 199.205,210.733 200.551,210.571 201.414 C 210.409 202.278,209.945 203.527,209.540 204.192 C 209.135 204.856,208.802 205.781,208.801 206.246 C 208.801 206.711,208.440 207.550,208.000 208.109 C 207.560 208.669,207.200 209.655,207.200 210.301 C 207.200 210.947,206.863 211.781,206.450 212.155 C 206.016 212.547,205.615 213.592,205.497 214.633 C 205.386 215.623,205.003 216.754,204.647 217.148 C 204.291 217.541,204.000 218.278,204.000 218.784 C 204.000 219.291,203.662 220.267,203.249 220.953 C 202.835 221.639,202.381 222.857,202.238 223.660 C 202.095 224.463,201.714 225.340,201.389 225.609 C 201.065 225.878,200.800 226.559,200.800 227.123 C 200.800 227.686,200.471 228.879,200.068 229.774 C 198.637 232.956,197.520 235.819,197.198 237.129 C 197.018 237.860,196.585 238.775,196.236 239.161 C 195.886 239.547,195.600 240.410,195.600 241.078 C 195.600 241.746,195.266 242.721,194.858 243.246 C 194.450 243.771,193.993 244.870,193.842 245.688 C 193.691 246.507,193.090 247.906,192.507 248.798 L 191.445 250.419 185.043 250.310 L 178.640 250.200 177.339 247.600 C 176.623 246.170,175.923 244.325,175.784 243.500 C 175.644 242.675,175.375 242.000,175.185 242.000 C 174.995 242.000,174.628 240.923,174.369 239.607 C 174.111 238.291,173.651 237.009,173.349 236.758 C 173.047 236.507,172.800 235.826,172.800 235.245 C 172.800 234.664,172.463 233.560,172.052 232.792 C 171.640 232.024,171.171 230.587,171.008 229.598 C 170.846 228.609,170.482 227.530,170.200 227.200 C 169.918 226.870,169.557 225.790,169.398 224.800 C 169.239 223.810,168.905 222.749,168.655 222.441 C 168.405 222.134,167.991 221.054,167.735 220.041 C 167.256 218.145,166.394 215.548,165.200 212.400 C 164.103 209.508,163.161 206.719,162.700 205.000 C 162.464 204.120,161.940 202.668,161.536 201.774 C 161.131 200.879,160.800 199.792,160.800 199.358 C 160.800 198.924,160.440 197.863,160.000 197.000 C 159.560 196.137,159.200 194.912,159.200 194.279 C 159.200 193.645,158.840 192.669,158.400 192.109 C 157.950 191.538,157.600 190.486,157.600 189.709 C 157.600 188.932,157.250 187.881,156.800 187.309 C 156.360 186.750,155.985 185.641,155.966 184.846 C 155.933 183.477,155.914 183.457,155.608 184.472 C 155.430 185.062,154.995 185.957,154.642 186.461 C 154.289 186.966,154.000 187.789,154.000 188.290 C 154.000 188.792,153.640 189.875,153.200 190.696 C 152.760 191.516,152.399 192.551,152.398 192.994 C 152.396 193.437,152.109 194.340,151.758 195.000 C 151.408 195.660,150.884 197.010,150.593 198.000 C 149.585 201.433,148.725 203.807,147.964 205.254 C 147.544 206.054,147.199 207.044,147.199 207.454 C 147.198 207.865,146.838 208.789,146.399 209.510 C 145.959 210.230,145.600 211.331,145.600 211.956 C 145.600 212.581,145.267 213.521,144.860 214.046 C 144.453 214.571,144.018 215.779,143.894 216.731 C 143.769 217.683,143.404 218.673,143.081 218.931 C 142.758 219.189,142.398 220.179,142.281 221.131 C 142.164 222.083,141.806 223.163,141.486 223.531 C 141.167 223.899,140.807 224.979,140.686 225.931 C 140.566 226.883,140.183 227.977,139.834 228.363 C 139.485 228.748,139.200 229.416,139.200 229.847 C 139.200 230.278,138.860 231.297,138.445 232.111 C 138.030 232.925,137.565 234.260,137.412 235.077 C 137.259 235.894,136.788 237.239,136.367 238.065 C 135.945 238.892,135.599 239.890,135.597 240.284 C 135.596 240.678,135.237 241.540,134.800 242.200 C 134.363 242.860,134.002 243.760,133.999 244.200 C 133.996 244.640,133.550 245.900,133.009 247.000 C 132.468 248.100,132.019 249.206,132.013 249.457 C 131.991 250.259,130.873 250.400,124.559 250.400 L 118.383 250.400 117.907 249.300 C 117.646 248.695,117.110 247.771,116.716 247.246 C 116.322 246.721,116.000 245.850,116.000 245.309 C 116.000 244.769,115.640 243.869,115.200 243.309 C 114.760 242.750,114.400 241.753,114.400 241.093 C 114.400 240.434,114.059 239.333,113.643 238.647 C 113.227 237.961,112.766 236.833,112.620 236.139 C 112.473 235.446,112.004 234.192,111.577 233.354 C 111.150 232.516,110.800 231.457,110.800 231.000 C 110.800 230.543,110.440 229.463,110.000 228.600 C 109.560 227.737,109.200 226.439,109.200 225.715 C 109.200 224.992,109.049 224.400,108.864 224.400 C 108.391 224.400,107.600 222.542,107.600 221.430 C 107.600 220.917,107.339 220.281,107.020 220.016 C 106.700 219.751,106.315 218.694,106.163 217.667 C 106.012 216.640,105.553 215.371,105.144 214.846 C 104.735 214.321,104.400 213.416,104.400 212.835 C 104.400 212.254,104.120 211.378,103.777 210.889 C 103.435 210.400,102.912 209.145,102.614 208.100 C 101.860 205.448,100.812 202.493,99.940 200.556 C 99.533 199.652,99.200 198.616,99.200 198.255 C 99.200 197.893,98.840 196.925,98.400 196.104 C 97.960 195.284,97.600 194.188,97.600 193.669 C 97.600 193.150,97.240 192.269,96.800 191.709 C 96.350 191.138,96.000 190.086,96.000 189.309 C 96.000 188.532,95.650 187.481,95.200 186.909 C 94.760 186.350,94.400 185.381,94.400 184.756 C 94.400 184.131,94.041 183.030,93.601 182.310 C 93.162 181.589,92.802 180.488,92.801 179.863 C 92.801 179.238,92.440 178.269,92.000 177.709 C 91.560 177.150,91.200 176.233,91.200 175.672 C 91.200 175.111,90.860 173.921,90.445 173.026 C 88.092 167.960,87.600 166.797,87.600 166.299 C 87.600 165.418,83.788 158.063,82.697 156.839 C 81.828 155.862,81.334 155.695,78.738 155.499 C 73.811 155.126,72.025 153.540,72.631 150.076 C 73.097 147.409,68.406 147.588,134.913 147.699 L 195.671 147.800 196.435 148.744 M132.758 154.799 C 132.405 155.006,130.695 155.315,128.958 155.488 L 125.800 155.801 125.850 159.714 C 125.889 162.707,126.053 163.795,126.548 164.343 C 126.904 164.736,127.317 165.945,127.464 167.029 C 127.611 168.113,127.984 169.186,128.293 169.414 C 128.601 169.642,128.955 170.632,129.079 171.614 C 129.203 172.596,129.543 173.675,129.834 174.010 C 130.124 174.346,130.483 175.378,130.631 176.303 C 130.779 177.228,131.144 178.187,131.442 178.435 C 131.740 178.682,132.100 179.762,132.242 180.835 C 132.385 181.908,132.744 182.987,133.040 183.233 C 133.336 183.479,133.695 184.337,133.838 185.140 C 133.981 185.943,134.420 187.140,134.814 187.800 C 135.207 188.460,135.654 189.843,135.806 190.873 C 135.958 191.903,136.324 192.839,136.619 192.952 C 136.914 193.065,137.276 193.799,137.423 194.583 C 137.570 195.367,138.030 196.675,138.445 197.489 C 138.860 198.303,139.200 199.345,139.200 199.805 C 139.200 200.264,139.393 200.833,139.630 201.070 C 139.866 201.306,140.308 202.197,140.612 203.050 C 141.114 204.457,141.167 204.498,141.182 203.496 C 141.192 202.889,141.560 202.084,142.000 201.707 C 142.528 201.255,142.800 200.527,142.800 199.565 C 142.800 198.714,143.133 197.685,143.600 197.091 C 144.040 196.531,144.400 195.541,144.400 194.891 C 144.400 194.240,144.760 193.250,145.200 192.691 C 145.640 192.131,146.001 191.072,146.003 190.337 C 146.004 189.602,146.363 188.460,146.800 187.800 C 147.237 187.140,147.596 186.260,147.597 185.844 C 147.599 185.428,147.938 184.348,148.351 183.444 C 148.764 182.540,149.288 181.080,149.515 180.200 C 149.742 179.320,150.207 177.853,150.548 176.941 C 150.992 175.753,151.063 174.959,150.799 174.141 C 149.836 171.161,148.897 168.799,148.472 168.287 C 148.215 167.977,147.883 167.111,147.734 166.362 C 147.585 165.613,147.134 164.460,146.733 163.800 C 146.331 163.140,146.002 162.195,146.001 161.700 C 146.001 161.205,145.640 160.440,145.200 160.000 C 144.760 159.560,144.400 158.750,144.400 158.200 C 144.400 157.552,144.176 157.200,143.763 157.200 C 143.412 157.200,143.037 156.861,142.928 156.447 C 142.759 155.798,142.239 155.671,139.162 155.524 C 137.161 155.428,135.384 155.144,135.117 154.877 C 134.551 154.311,133.645 154.281,132.758 154.799 " stroke="none" fill="#04abf3" fill-rule="evenodd"></path><path id="path2" d="M73.677 148.883 C 73.062 149.498,73.056 153.063,73.668 153.442 C 73.926 153.601,76.004 154.135,78.287 154.628 C 81.462 155.313,82.645 155.752,83.319 156.494 C 84.320 157.596,88.027 164.728,88.011 165.520 C 87.996 166.239,89.211 168.523,89.470 168.263 C 89.587 168.147,89.393 167.640,89.041 167.137 C 88.688 166.634,88.400 165.888,88.400 165.479 C 88.400 164.379,84.919 157.571,83.712 156.309 C 82.639 155.188,80.100 154.289,76.649 153.808 C 75.576 153.658,74.451 153.441,74.149 153.325 C 73.459 153.060,73.406 149.954,74.080 149.280 C 74.844 148.516,132.328 148.594,133.422 149.360 C 134.107 149.840,134.331 149.840,134.987 149.360 C 136.332 148.377,194.042 148.542,194.938 149.531 C 196.526 151.287,195.534 153.600,193.193 153.600 C 191.401 153.600,186.199 154.937,185.394 155.605 C 184.962 155.964,184.821 156.819,184.877 158.749 L 184.954 161.400 185.098 158.800 C 185.177 157.370,185.376 156.066,185.539 155.903 C 186.023 155.417,191.685 154.020,193.211 154.009 C 196.392 153.988,197.623 150.422,195.040 148.708 C 194.233 148.172,74.214 148.346,73.677 148.883 M204.229 149.029 C 202.051 151.206,203.758 153.791,207.600 154.135 C 215.515 154.843,216.361 155.310,216.810 159.220 L 217.152 162.200 217.030 159.306 C 216.855 155.160,215.701 154.404,208.600 153.782 C 204.551 153.428,204.000 153.144,204.000 151.409 C 204.000 148.770,203.787 148.800,222.643 148.800 L 239.508 148.800 240.154 149.786 C 241.706 152.155,240.760 153.319,236.724 154.008 C 232.201 154.780,230.884 155.103,232.057 155.154 C 233.455 155.215,239.203 154.082,240.131 153.563 C 240.598 153.302,241.032 153.292,241.331 153.536 C 241.589 153.746,243.870 154.227,246.400 154.604 C 254.934 155.876,254.200 151.717,254.200 198.800 C 254.200 244.371,254.631 240.592,249.200 242.638 C 247.979 243.098,247.928 243.166,248.800 243.176 C 250.740 243.197,252.914 241.549,253.790 239.393 C 254.584 237.439,254.600 236.634,254.600 198.600 L 254.600 159.800 253.665 157.734 C 252.499 155.157,251.547 154.760,244.200 153.789 C 241.711 153.460,241.200 153.050,241.200 151.380 C 241.200 148.635,239.159 148.800,273.180 148.800 C 307.414 148.800,304.947 148.576,304.724 151.670 L 304.600 153.400 301.000 153.705 C 293.432 154.347,292.122 154.942,291.000 158.244 C 289.713 162.034,289.764 236.341,291.056 239.400 C 291.896 241.390,293.848 243.200,295.153 243.200 C 295.502 243.200,294.992 242.775,294.020 242.254 C 290.463 240.352,290.641 242.610,290.619 199.200 C 290.595 151.798,289.966 155.772,297.672 154.628 C 299.999 154.283,302.429 154.000,303.071 154.000 C 305.062 154.000,305.982 151.409,304.786 149.174 C 304.222 148.120,242.517 147.940,241.468 148.989 C 240.950 149.507,240.821 149.507,240.391 148.989 C 239.629 148.072,205.148 148.109,204.229 149.029 M133.468 153.266 C 133.134 153.453,131.722 153.723,130.330 153.866 C 124.613 154.452,123.682 155.431,124.435 160.065 C 124.725 161.851,125.030 163.109,125.113 162.861 C 125.196 162.612,125.083 161.248,124.863 159.830 C 124.188 155.500,124.169 155.518,130.927 154.226 C 133.866 153.664,134.261 153.677,137.461 154.437 C 139.334 154.882,141.167 155.187,141.533 155.114 C 141.900 155.042,141.120 154.754,139.800 154.475 C 138.480 154.196,136.652 153.734,135.738 153.447 C 134.754 153.139,133.827 153.065,133.468 153.266 M143.060 155.811 C 143.189 156.147,143.678 156.622,144.147 156.865 C 144.932 157.273,144.922 157.224,144.030 156.254 C 142.915 155.042,142.732 154.958,143.060 155.811 M229.633 155.761 C 229.377 156.069,228.758 156.424,228.258 156.550 C 227.021 156.860,224.448 161.049,223.067 165.000 C 222.759 165.880,222.363 166.945,222.186 167.366 C 221.960 167.903,222.002 168.046,222.327 167.845 C 222.581 167.688,223.074 166.582,223.421 165.387 C 223.768 164.192,224.201 163.123,224.382 163.011 C 224.563 162.899,224.825 162.356,224.963 161.805 C 225.225 160.760,227.572 157.200,227.999 157.200 C 228.134 157.200,228.855 156.750,229.600 156.200 C 230.345 155.650,230.762 155.200,230.527 155.200 C 230.291 155.200,229.889 155.452,229.633 155.761 M144.800 157.632 C 144.800 158.028,147.965 164.200,147.982 163.839 C 148.005 163.383,146.075 159.264,145.346 158.211 C 145.046 157.777,144.800 157.516,144.800 157.632 M185.215 162.600 C 185.207 163.040,185.552 164.300,185.982 165.400 C 187.004 168.018,187.032 166.814,186.014 163.985 C 185.582 162.783,185.223 162.160,185.215 162.600 M216.493 163.600 C 216.493 164.370,216.575 164.685,216.676 164.300 C 216.776 163.915,216.776 163.285,216.676 162.900 C 216.575 162.515,216.493 162.830,216.493 163.600 M125.200 164.029 C 125.200 164.369,125.464 164.996,125.787 165.424 C 126.110 165.851,126.401 166.560,126.434 167.000 C 126.480 167.622,126.532 167.653,126.668 167.139 C 126.765 166.776,126.474 165.788,126.022 164.945 C 125.570 164.102,125.200 163.690,125.200 164.029 M148.008 164.712 C 147.999 165.315,149.754 169.712,150.643 171.313 C 151.724 173.261,151.813 176.403,150.849 178.583 C 149.858 180.824,149.739 181.942,150.676 180.210 C 152.410 177.005,152.405 173.868,150.657 170.224 C 150.334 169.551,149.608 167.920,149.043 166.600 C 148.478 165.280,148.012 164.430,148.008 164.712 M215.474 166.731 C 215.103 167.658,214.810 168.728,214.822 169.108 C 214.834 169.489,215.201 168.920,215.637 167.845 C 216.073 166.770,216.367 165.700,216.289 165.468 C 216.212 165.236,215.845 165.804,215.474 166.731 M186.859 168.000 C 186.859 168.330,187.193 169.320,187.600 170.200 C 188.007 171.080,188.341 171.530,188.341 171.200 C 188.341 170.870,188.007 169.880,187.600 169.000 C 187.193 168.120,186.859 167.670,186.859 168.000 M126.846 168.501 C 126.821 168.887,127.160 169.875,127.600 170.696 C 128.040 171.516,128.400 171.916,128.400 171.583 C 128.400 171.250,128.152 170.623,127.848 170.189 C 127.545 169.755,127.205 169.040,127.094 168.600 C 126.930 167.947,126.884 167.929,126.846 168.501 M221.632 168.806 C 221.614 169.139,221.240 170.084,220.800 170.904 C 220.360 171.725,219.994 172.623,219.986 172.899 C 219.979 173.174,219.625 174.120,219.200 175.000 C 218.775 175.880,218.421 176.820,218.414 177.089 C 218.406 177.358,218.057 178.348,217.638 179.289 C 217.220 180.230,216.385 182.350,215.785 184.000 C 214.636 187.153,212.618 192.486,210.976 196.708 C 210.439 198.087,210.000 199.402,210.000 199.630 C 210.000 199.858,209.629 200.857,209.177 201.852 C 208.724 202.846,208.410 203.830,208.480 204.039 C 208.549 204.248,209.026 203.290,209.538 201.909 C 210.051 200.529,210.709 198.860,211.001 198.200 C 211.293 197.540,211.803 196.190,212.135 195.200 C 212.467 194.210,213.096 192.500,213.532 191.400 C 213.969 190.300,214.547 188.770,214.817 188.000 C 215.088 187.230,215.625 185.790,216.012 184.800 C 216.398 183.810,217.204 181.650,217.801 180.000 C 218.399 178.350,219.228 176.260,219.644 175.356 C 220.060 174.452,220.400 173.474,220.400 173.182 C 220.400 172.891,220.775 171.877,221.234 170.929 C 221.693 169.981,221.977 168.979,221.866 168.703 C 221.727 168.359,221.653 168.391,221.632 168.806 M89.789 169.800 C 89.939 170.460,90.318 171.284,90.631 171.631 C 90.944 171.979,91.221 172.699,91.246 173.231 C 91.280 173.925,91.345 173.999,91.478 173.491 C 91.579 173.101,91.179 171.841,90.589 170.691 C 89.833 169.218,89.597 168.955,89.789 169.800 M213.879 171.650 C 212.928 174.139,213.069 175.029,214.037 172.645 C 214.473 171.570,214.769 170.506,214.694 170.281 C 214.619 170.056,214.252 170.672,213.879 171.650 M188.431 172.600 C 188.424 173.040,188.774 174.185,189.209 175.144 C 189.644 176.103,190.000 177.095,190.000 177.350 C 190.000 177.604,190.360 178.484,190.800 179.304 C 191.240 180.125,191.601 181.203,191.602 181.699 C 191.604 182.194,191.895 183.140,192.249 183.800 C 192.603 184.460,193.036 185.450,193.212 186.000 L 193.531 187.000 193.563 186.000 C 193.580 185.450,193.237 184.460,192.800 183.800 C 192.363 183.140,192.004 182.200,192.003 181.711 C 192.001 181.222,191.653 180.052,191.228 179.111 C 190.803 178.170,190.003 176.140,189.450 174.600 C 188.897 173.060,188.438 172.160,188.431 172.600 M128.428 173.000 C 128.424 173.440,128.778 174.520,129.215 175.400 C 130.089 177.160,129.998 176.307,129.044 173.800 C 128.693 172.879,128.432 172.539,128.428 173.000 M91.601 175.251 C 91.601 175.609,91.870 176.126,92.200 176.400 C 92.530 176.674,92.821 177.281,92.846 177.749 C 92.880 178.356,92.943 178.412,93.067 177.944 C 93.163 177.583,92.873 176.683,92.422 175.944 C 91.948 175.165,91.602 174.874,91.601 175.251 M212.288 176.296 C 211.938 177.123,211.438 178.520,211.177 179.400 C 210.917 180.280,210.545 181.171,210.352 181.380 C 210.158 181.589,210.000 182.046,210.000 182.395 C 210.000 182.745,209.650 183.716,209.223 184.554 C 208.796 185.392,208.324 186.646,208.174 187.339 C 208.025 188.033,207.564 189.268,207.151 190.084 C 206.738 190.900,206.414 191.890,206.432 192.284 C 206.456 192.841,206.512 192.867,206.683 192.400 C 206.804 192.070,207.240 191.045,207.652 190.122 C 208.063 189.199,208.400 188.258,208.400 188.030 C 208.400 187.802,209.130 185.768,210.022 183.508 C 213.023 175.909,213.294 175.160,213.109 174.976 C 213.008 174.875,212.639 175.469,212.288 176.296 M130.035 177.400 C 130.020 177.620,130.643 179.600,131.421 181.800 C 132.198 184.000,133.102 186.647,133.428 187.683 C 133.754 188.718,134.196 189.674,134.410 189.806 C 134.625 189.939,134.814 190.442,134.832 190.924 C 134.851 191.474,134.946 191.590,135.087 191.234 C 135.210 190.923,135.023 190.113,134.672 189.434 C 133.925 187.992,132.534 184.084,131.959 181.816 C 131.739 180.944,131.412 180.044,131.233 179.816 C 131.054 179.587,130.717 178.860,130.485 178.200 C 130.253 177.540,130.051 177.180,130.035 177.400 M93.200 179.507 C 93.200 179.780,93.560 180.675,94.000 181.496 C 94.440 182.316,94.800 182.765,94.800 182.493 C 94.800 182.220,94.440 181.325,94.000 180.504 C 93.560 179.684,93.200 179.235,93.200 179.507 M149.641 182.200 C 149.603 182.640,149.225 183.720,148.800 184.600 C 148.375 185.480,148.021 186.434,148.014 186.720 C 148.006 187.006,147.714 187.792,147.365 188.468 C 147.016 189.143,146.494 190.529,146.206 191.548 C 145.919 192.567,145.203 194.660,144.617 196.200 C 144.030 197.740,143.375 199.698,143.161 200.552 C 142.948 201.405,142.509 202.481,142.186 202.941 C 141.864 203.401,141.606 204.053,141.614 204.389 C 141.634 205.254,142.659 203.392,143.369 201.200 C 143.689 200.210,144.423 198.140,145.000 196.600 C 145.576 195.060,146.308 192.875,146.625 191.744 C 146.943 190.613,147.471 189.173,147.799 188.544 C 148.127 187.915,148.396 187.168,148.398 186.884 C 148.399 186.600,148.771 185.641,149.224 184.753 C 149.677 183.865,149.971 182.747,149.878 182.269 C 149.724 181.476,149.703 181.469,149.641 182.200 M154.678 183.485 C 154.155 184.538,153.493 186.260,153.208 187.310 C 152.923 188.361,152.535 189.317,152.345 189.434 C 152.155 189.551,152.000 189.947,152.000 190.313 C 152.000 191.438,153.056 189.629,153.589 187.588 C 154.192 185.283,155.518 182.494,156.104 182.299 C 156.443 182.186,156.440 182.072,156.095 181.858 C 155.797 181.675,155.284 182.265,154.678 183.485 M94.816 183.811 C 94.807 184.257,95.049 184.977,95.353 185.411 C 95.657 185.845,96.181 187.190,96.518 188.400 C 97.078 190.408,97.647 192.050,99.362 196.600 C 99.787 197.727,99.970 197.937,99.982 197.311 C 99.992 196.822,99.660 195.652,99.244 194.711 C 97.997 191.890,96.801 188.623,96.784 187.992 C 96.757 187.015,94.834 182.927,94.816 183.811 M156.463 184.200 C 156.431 184.860,156.763 185.940,157.200 186.600 C 157.637 187.260,157.997 188.250,158.000 188.800 C 158.003 189.350,158.297 190.340,158.654 191.000 C 159.011 191.660,159.442 192.740,159.611 193.400 C 159.864 194.388,159.925 194.438,159.959 193.684 C 159.982 193.180,159.640 192.062,159.200 191.200 C 158.760 190.338,158.399 189.220,158.399 188.716 C 158.398 188.212,158.051 187.233,157.629 186.540 C 157.207 185.848,156.784 184.768,156.690 184.140 L 156.520 183.000 156.463 184.200 M193.603 187.876 C 193.601 188.138,193.775 188.461,193.989 188.593 C 194.203 188.726,194.566 189.591,194.795 190.517 C 195.025 191.443,195.476 192.740,195.798 193.400 C 196.373 194.579,199.227 203.154,200.025 206.100 C 200.248 206.925,200.606 207.600,200.820 207.600 C 201.467 207.600,203.819 201.902,204.865 197.800 C 205.089 196.920,205.564 195.622,205.919 194.916 C 206.274 194.209,206.466 193.533,206.345 193.412 C 206.035 193.102,204.395 197.337,203.017 202.000 C 202.176 204.848,201.173 206.937,200.831 206.553 C 200.510 206.193,198.395 199.679,198.398 199.060 C 198.399 198.874,198.156 198.154,197.858 197.460 C 196.625 194.592,195.200 190.752,195.197 190.292 C 195.196 190.021,194.837 189.260,194.400 188.600 C 193.963 187.940,193.604 187.614,193.603 187.876 M151.646 191.716 C 151.621 192.110,151.240 193.138,150.800 194.000 C 150.360 194.862,150.007 195.890,150.016 196.284 C 150.025 196.678,150.485 195.948,151.038 194.662 C 151.591 193.375,151.965 192.025,151.868 191.662 C 151.717 191.091,151.686 191.099,151.646 191.716 M135.232 192.338 C 135.214 192.634,135.456 193.354,135.768 193.938 C 136.081 194.522,136.601 195.810,136.924 196.800 C 139.896 205.909,141.703 209.333,141.566 205.600 C 141.551 205.193,141.448 205.245,141.245 205.760 C 140.911 206.613,141.121 207.036,138.788 200.800 C 138.088 198.930,137.307 196.660,137.053 195.756 C 136.799 194.852,136.392 193.862,136.149 193.556 C 135.906 193.250,135.607 192.730,135.485 192.400 C 135.324 191.964,135.255 191.947,135.232 192.338 M160.017 195.220 C 160.008 195.561,160.181 196.021,160.403 196.243 C 160.624 196.464,161.057 197.535,161.365 198.623 C 162.208 201.594,163.164 203.916,163.169 203.000 C 163.171 202.560,162.825 201.480,162.400 200.600 C 161.975 199.720,161.613 198.640,161.597 198.200 C 161.560 197.219,160.040 194.353,160.017 195.220 M149.038 199.006 C 148.653 200.103,147.971 201.954,147.523 203.120 C 147.074 204.286,146.800 205.334,146.914 205.448 C 147.126 205.659,148.800 201.502,148.800 200.765 C 148.800 200.542,149.081 199.817,149.424 199.153 C 149.768 198.489,149.979 197.736,149.893 197.479 C 149.808 197.223,149.423 197.910,149.038 199.006 M100.003 198.876 C 100.001 199.248,100.177 199.662,100.394 199.796 C 100.610 199.930,100.954 200.616,101.158 201.320 C 101.488 202.461,101.531 202.492,101.561 201.600 C 101.580 201.050,101.237 200.060,100.800 199.400 C 100.258 198.582,100.004 198.415,100.003 198.876 M101.600 203.125 C 101.600 203.402,101.852 204.027,102.161 204.514 C 102.469 205.001,102.851 206.030,103.009 206.800 C 103.325 208.338,104.754 211.308,104.782 210.486 C 104.792 210.203,104.552 209.573,104.250 209.086 C 103.947 208.599,103.488 207.316,103.228 206.237 C 102.773 204.340,101.600 202.099,101.600 203.125 M163.332 204.600 C 163.905 206.731,164.765 208.570,164.782 207.699 C 164.792 207.203,164.421 206.123,163.959 205.299 C 163.496 204.474,163.214 204.160,163.332 204.600 M207.489 206.182 C 206.525 208.205,206.624 208.914,207.603 206.994 C 208.045 206.128,208.355 205.265,208.292 205.077 C 208.230 204.890,207.868 205.387,207.489 206.182 M145.874 207.531 C 144.933 209.883,145.045 210.579,146.020 208.432 C 146.461 207.460,146.760 206.480,146.685 206.255 C 146.610 206.030,146.245 206.604,145.874 207.531 M164.803 209.415 C 164.804 209.847,165.163 210.740,165.600 211.400 C 166.629 212.953,166.629 212.218,165.600 210.200 C 165.075 209.169,164.801 208.900,164.803 209.415 M205.642 211.291 C 205.118 212.671,203.976 215.690,203.104 218.000 C 202.232 220.310,201.177 222.970,200.759 223.911 C 200.342 224.852,200.007 225.932,200.016 226.311 C 200.033 227.063,200.864 225.343,202.001 222.200 C 203.783 217.279,204.069 216.527,204.618 215.340 C 204.938 214.646,205.200 213.871,205.200 213.618 C 205.200 213.364,205.571 212.343,206.023 211.348 C 206.476 210.354,206.790 209.370,206.720 209.161 C 206.651 208.952,206.165 209.910,205.642 211.291 M144.252 212.226 C 143.841 213.223,143.588 214.121,143.690 214.223 C 143.961 214.494,145.316 211.346,145.145 210.842 C 145.065 210.607,144.664 211.229,144.252 212.226 M104.977 212.325 C 105.094 213.054,105.485 214.044,105.844 214.525 C 106.565 215.489,106.553 215.440,105.328 212.400 L 104.763 211.000 104.977 212.325 M166.441 213.540 C 166.393 214.651,167.683 217.552,167.915 216.854 C 168.004 216.589,167.856 216.108,167.587 215.784 C 167.318 215.460,166.959 214.611,166.790 213.898 C 166.549 212.882,166.473 212.804,166.441 213.540 M143.246 215.320 C 143.221 215.716,142.901 216.616,142.537 217.320 C 142.172 218.024,141.731 219.140,141.558 219.800 C 141.385 220.460,140.684 222.530,140.001 224.400 C 138.404 228.770,138.168 229.743,139.131 228.000 C 139.556 227.230,140.036 225.970,140.197 225.200 C 140.358 224.430,140.830 223.045,141.245 222.122 C 141.660 221.199,142.000 220.170,142.000 219.834 C 142.000 219.499,142.375 218.506,142.832 217.628 C 143.290 216.750,143.581 215.709,143.479 215.315 C 143.301 214.632,143.291 214.632,143.246 215.320 M106.432 216.126 C 106.414 216.525,106.746 217.695,107.169 218.726 C 107.591 219.757,108.027 220.870,108.137 221.200 C 108.287 221.651,108.345 221.620,108.368 221.074 C 108.386 220.675,108.054 219.505,107.631 218.474 C 107.209 217.443,106.773 216.330,106.663 216.000 C 106.513 215.549,106.455 215.580,106.432 216.126 M168.427 220.000 C 168.426 220.330,168.690 220.949,169.013 221.376 C 169.760 222.364,169.752 221.715,169.000 220.400 C 168.668 219.820,168.428 219.652,168.427 220.000 M108.407 222.451 C 108.403 222.809,108.670 223.326,109.000 223.600 C 109.330 223.874,109.625 224.571,109.654 225.149 C 109.704 226.112,109.724 226.124,109.884 225.285 C 109.982 224.775,109.695 223.801,109.237 223.085 C 108.729 222.293,108.411 222.050,108.407 222.451 M169.631 223.000 C 169.633 223.440,169.904 224.520,170.232 225.400 C 171.690 229.309,174.117 236.416,174.787 238.740 C 175.190 240.136,175.744 241.486,176.019 241.740 C 176.410 242.101,176.450 242.027,176.204 241.400 C 176.032 240.960,175.568 239.477,175.172 238.105 C 174.777 236.733,174.345 235.435,174.213 235.221 C 174.081 235.007,172.995 231.990,171.800 228.516 C 170.605 225.042,169.629 222.560,169.631 223.000 M110.208 227.000 C 110.377 227.440,110.776 228.610,111.095 229.600 C 111.830 231.879,113.170 235.112,113.187 234.648 C 113.213 233.937,111.027 227.775,110.473 227.000 L 109.902 226.200 110.208 227.000 M199.089 228.696 C 198.046 231.163,196.400 235.516,196.400 235.808 C 196.400 235.957,196.106 236.698,195.748 237.454 C 195.389 238.210,195.181 238.914,195.285 239.018 C 195.490 239.224,195.825 238.456,198.394 231.874 C 199.961 227.858,200.517 225.319,199.089 228.696 M137.474 231.131 C 136.533 233.483,136.645 234.179,137.620 232.032 C 138.061 231.060,138.360 230.080,138.285 229.855 C 138.210 229.630,137.845 230.204,137.474 231.131 M135.407 237.255 C 134.768 239.095,134.011 241.050,133.725 241.600 C 133.439 242.150,133.204 242.971,133.202 243.424 C 133.201 243.876,132.936 244.596,132.613 245.024 C 132.290 245.451,132.027 246.070,132.029 246.400 C 132.035 247.225,133.562 244.373,133.583 243.499 C 133.592 243.113,133.960 242.125,134.400 241.304 C 134.840 240.484,135.200 239.573,135.200 239.280 C 135.200 238.988,135.578 237.869,136.040 236.795 C 136.502 235.721,136.811 234.632,136.725 234.376 C 136.640 234.119,136.047 235.415,135.407 237.255 M113.419 236.167 C 113.546 236.810,113.908 237.705,114.225 238.156 C 115.023 239.297,114.893 238.514,113.965 236.600 C 113.307 235.243,113.224 235.177,113.419 236.167 M115.015 240.580 C 115.153 241.448,115.521 242.523,115.833 242.969 C 116.145 243.414,116.400 244.101,116.400 244.495 C 116.400 244.889,116.957 246.199,117.638 247.406 L 118.876 249.600 124.971 249.600 C 131.061 249.600,131.065 249.599,131.600 248.601 C 131.894 248.051,132.031 247.497,131.904 247.370 C 131.777 247.244,131.556 247.507,131.414 247.956 C 131.068 249.046,129.638 249.265,123.827 249.120 L 119.054 249.000 117.991 247.188 C 117.406 246.192,116.827 244.932,116.705 244.388 C 116.203 242.153,114.741 238.860,115.015 240.580 M194.834 240.200 C 194.801 240.640,194.510 241.349,194.187 241.776 C 193.864 242.204,193.600 242.831,193.600 243.171 C 193.600 243.510,193.970 243.098,194.422 242.255 C 194.874 241.412,195.165 240.424,195.068 240.061 C 194.932 239.547,194.880 239.578,194.834 240.200 M176.599 243.626 C 176.714 244.410,177.303 246.030,177.907 247.226 L 179.005 249.400 185.170 249.400 L 191.335 249.400 192.467 247.208 C 193.090 246.002,193.600 244.759,193.600 244.446 C 193.600 244.132,193.015 245.029,192.300 246.438 L 191.000 249.000 185.956 249.112 C 178.957 249.266,178.826 249.189,176.947 243.800 L 176.390 242.200 176.599 243.626 M240.250 243.714 C 239.228 244.461,238.932 247.275,239.786 248.128 C 240.652 248.995,303.858 249.182,304.720 248.320 C 305.289 247.751,305.349 244.855,304.809 244.000 C 304.518 243.540,303.519 243.388,300.515 243.349 L 296.600 243.298 300.282 243.549 C 304.537 243.839,304.896 244.073,304.726 246.446 L 304.600 248.200 272.644 248.302 C 237.444 248.415,239.366 248.556,239.725 245.884 C 240.003 243.812,239.964 243.833,243.932 243.569 L 247.400 243.338 244.176 243.269 C 242.082 243.224,240.707 243.380,240.250 243.714 " stroke="none" fill="#11749e" fill-rule="evenodd"></path><path id="path3" d="M74.080 149.280 C 73.406 149.954,73.459 153.060,74.149 153.325 C 74.451 153.441,75.576 153.658,76.649 153.808 C 80.100 154.289,82.639 155.188,83.712 156.309 C 84.877 157.527,88.400 164.363,88.400 165.406 C 88.400 165.775,88.653 166.554,88.963 167.138 C 90.456 169.954,91.600 172.773,91.601 173.640 C 91.602 174.168,91.962 175.189,92.401 175.910 C 92.841 176.630,93.200 177.600,93.200 178.066 C 93.200 178.531,93.539 179.652,93.952 180.556 C 95.115 183.096,96.800 187.561,96.800 188.100 C 96.800 188.629,98.048 192.005,99.244 194.711 C 99.660 195.652,100.001 196.822,100.003 197.311 C 100.004 197.800,100.363 198.740,100.800 199.400 C 101.237 200.060,101.596 201.055,101.597 201.611 C 101.599 202.167,101.860 202.994,102.178 203.448 C 102.496 203.902,102.972 205.157,103.235 206.237 C 103.498 207.316,103.952 208.650,104.243 209.200 C 104.534 209.750,104.949 210.830,105.164 211.600 C 105.380 212.370,106.035 214.260,106.620 215.800 C 107.205 217.340,107.924 219.455,108.219 220.500 C 108.514 221.545,109.035 222.800,109.377 223.289 C 109.720 223.778,110.000 224.605,110.000 225.127 C 110.000 225.649,110.268 226.554,110.595 227.138 C 110.922 227.722,111.724 229.820,112.377 231.800 C 113.030 233.780,114.222 237.200,115.026 239.400 C 115.830 241.600,116.587 243.845,116.707 244.388 C 116.828 244.932,117.406 246.192,117.991 247.188 L 119.054 249.000 123.827 249.120 C 130.182 249.279,130.989 249.109,131.591 247.490 C 131.855 246.781,132.325 245.722,132.636 245.138 C 132.946 244.554,133.201 243.744,133.202 243.338 C 133.204 242.932,133.455 242.121,133.760 241.536 C 134.065 240.951,135.046 238.341,135.938 235.736 C 136.831 233.131,137.942 230.010,138.407 228.800 C 139.652 225.560,141.184 221.172,141.552 219.791 C 141.730 219.125,142.109 218.144,142.395 217.609 C 142.681 217.074,143.150 215.819,143.437 214.818 C 143.882 213.270,144.618 211.165,146.800 205.200 C 149.023 199.124,149.690 197.222,149.958 196.200 C 150.131 195.540,150.550 194.460,150.888 193.800 C 151.227 193.140,151.636 191.970,151.798 191.200 C 151.960 190.430,152.233 189.620,152.405 189.400 C 152.578 189.180,152.989 188.083,153.319 186.963 C 154.752 182.103,156.143 180.646,156.612 183.514 C 156.746 184.331,157.203 185.655,157.628 186.454 C 158.052 187.254,158.400 188.297,158.400 188.770 C 158.400 189.244,158.760 190.338,159.200 191.200 C 159.640 192.062,160.000 193.142,160.000 193.600 C 160.000 194.058,160.360 195.138,160.800 196.000 C 161.240 196.862,161.606 197.890,161.614 198.284 C 161.621 198.678,161.975 199.720,162.400 200.600 C 162.825 201.480,163.179 202.563,163.186 203.006 C 163.194 203.449,163.560 204.484,164.000 205.304 C 164.440 206.125,164.800 207.210,164.800 207.714 C 164.800 208.218,165.158 209.334,165.596 210.193 C 166.034 211.052,166.505 212.395,166.641 213.178 C 166.778 213.960,167.116 214.963,167.392 215.406 C 167.669 215.849,168.087 217.019,168.322 218.006 C 168.737 219.753,173.034 232.399,174.164 235.200 C 174.474 235.970,175.318 238.490,176.039 240.800 C 178.721 249.391,178.499 249.200,185.832 249.200 L 190.812 249.200 191.607 247.900 C 192.044 247.185,192.686 245.790,193.033 244.800 C 193.379 243.810,193.913 242.460,194.218 241.800 C 194.523 241.140,194.893 240.060,195.041 239.400 C 195.189 238.740,195.440 238.020,195.599 237.800 C 195.758 237.580,196.259 236.320,196.713 235.000 C 197.166 233.680,197.895 231.700,198.332 230.600 C 198.768 229.500,199.347 227.970,199.617 227.200 C 199.888 226.430,200.424 224.990,200.809 224.000 C 201.961 221.042,204.610 214.008,205.782 210.800 C 206.384 209.150,207.220 207.030,207.638 206.089 C 208.057 205.148,208.406 204.158,208.414 203.889 C 208.421 203.620,208.775 202.680,209.200 201.800 C 209.625 200.920,209.979 199.979,209.986 199.708 C 209.994 199.437,210.439 198.087,210.976 196.708 C 212.618 192.486,214.636 187.153,215.785 184.000 C 216.385 182.350,217.220 180.230,217.638 179.289 C 218.057 178.348,218.406 177.358,218.414 177.089 C 218.421 176.820,218.775 175.880,219.200 175.000 C 219.625 174.120,219.979 173.158,219.986 172.862 C 219.994 172.566,220.263 171.846,220.584 171.262 C 221.255 170.043,223.200 165.098,223.200 164.612 C 223.200 163.199,227.091 156.885,228.163 156.560 C 228.623 156.420,229.273 156.067,229.606 155.776 C 230.145 155.305,233.094 154.592,237.749 153.807 C 240.744 153.301,241.562 151.934,240.154 149.786 L 239.508 148.800 222.643 148.800 C 203.787 148.800,204.000 148.770,204.000 151.409 C 204.000 153.144,204.551 153.428,208.600 153.782 C 216.173 154.445,217.017 155.110,216.954 160.364 C 216.901 164.867,215.387 169.923,210.022 183.508 C 209.130 185.768,208.399 187.838,208.398 188.108 C 208.396 188.379,208.128 189.112,207.802 189.737 C 207.476 190.362,206.954 191.733,206.643 192.782 C 206.331 193.831,205.891 195.029,205.665 195.445 C 205.439 195.860,205.075 196.920,204.856 197.800 C 203.856 201.810,201.471 207.600,200.820 207.600 C 200.606 207.600,200.248 206.925,200.025 206.100 C 199.144 202.846,196.368 194.544,195.846 193.600 C 195.541 193.050,195.164 191.970,195.007 191.200 C 194.850 190.430,194.493 189.437,194.213 188.994 C 193.934 188.551,193.567 187.561,193.399 186.794 C 193.231 186.027,192.757 184.773,192.347 184.006 C 191.936 183.239,191.600 182.187,191.600 181.668 C 191.600 181.148,191.332 180.246,191.005 179.662 C 190.359 178.508,189.434 176.034,188.589 173.200 C 188.293 172.210,187.396 169.523,186.595 167.229 C 184.840 162.202,184.230 156.571,185.341 155.649 C 186.189 154.946,191.345 153.600,193.193 153.600 C 195.559 153.600,196.600 151.029,194.869 149.462 C 193.844 148.535,136.297 148.437,134.978 149.360 C 134.293 149.840,134.069 149.840,133.413 149.360 C 132.365 148.594,74.844 148.516,74.080 149.280 M241.829 149.429 C 240.046 151.211,241.234 153.398,244.200 153.789 C 251.547 154.760,252.499 155.157,253.665 157.734 L 254.600 159.800 254.600 198.600 C 254.600 236.670,254.585 237.438,253.788 239.399 C 252.581 242.368,250.864 243.189,245.233 243.486 C 240.111 243.756,240.004 243.802,239.728 245.859 C 239.366 248.561,237.408 248.415,272.644 248.302 L 304.600 248.200 304.727 246.415 C 304.898 244.022,304.263 243.605,300.424 243.583 C 289.483 243.520,290.213 246.703,290.206 199.000 C 290.198 150.420,289.177 154.708,301.000 153.705 L 304.600 153.400 304.724 151.670 C 304.947 148.576,307.414 148.800,273.180 148.800 C 245.783 148.800,242.389 148.868,241.829 149.429 M132.720 150.080 C 134.377 151.737,133.061 153.187,129.867 153.223 C 126.211 153.264,123.429 154.956,123.281 157.228 C 123.141 159.377,125.214 166.829,127.255 171.511 C 127.665 172.452,128.000 173.584,128.000 174.027 C 128.000 174.470,128.360 175.538,128.800 176.400 C 129.240 177.262,129.600 178.293,129.600 178.690 C 129.600 179.087,129.934 180.039,130.341 180.806 C 130.749 181.573,131.201 182.840,131.345 183.622 C 131.489 184.405,131.966 185.748,132.404 186.607 C 132.842 187.466,133.200 188.451,133.200 188.796 C 133.200 189.140,133.443 189.777,133.740 190.211 C 134.037 190.645,134.406 191.540,134.559 192.200 C 134.879 193.578,136.141 197.015,137.244 199.511 C 137.660 200.452,138.000 201.539,138.000 201.926 C 138.000 202.314,138.350 203.316,138.777 204.154 C 139.204 204.992,139.665 206.186,139.801 206.806 C 140.231 208.764,142.000 208.374,142.000 206.320 C 142.000 206.028,142.336 205.161,142.747 204.394 C 143.157 203.627,143.630 202.370,143.797 201.600 C 143.964 200.830,144.233 200.110,144.396 200.000 C 144.558 199.890,144.974 198.900,145.319 197.800 C 146.558 193.857,147.311 191.741,148.844 187.892 C 149.700 185.742,150.406 183.672,150.414 183.292 C 150.421 182.911,150.775 181.880,151.200 181.000 C 151.625 180.120,151.979 179.068,151.986 178.662 C 151.994 178.256,152.300 177.415,152.667 176.795 C 153.289 175.741,153.289 175.549,152.667 173.919 C 152.300 172.959,151.996 171.909,151.991 171.587 C 151.986 171.264,151.630 170.550,151.200 170.000 C 150.770 169.450,150.414 168.633,150.409 168.185 C 150.404 167.736,150.050 166.684,149.623 165.846 C 149.196 165.008,148.734 163.812,148.597 163.189 C 148.461 162.565,148.090 161.841,147.774 161.579 C 147.458 161.317,147.200 160.809,147.199 160.451 C 147.196 157.572,142.261 153.748,137.867 153.219 C 134.857 152.858,134.093 151.907,135.600 150.400 C 136.664 149.336,193.503 149.119,194.380 150.176 C 195.784 151.868,194.772 152.986,191.600 153.248 C 187.422 153.593,185.002 154.546,184.359 156.099 C 183.760 157.545,184.592 163.975,185.821 167.400 C 186.216 168.500,186.846 170.300,187.222 171.400 C 187.597 172.500,188.106 173.985,188.352 174.700 C 188.599 175.415,189.000 176.585,189.244 177.300 C 189.488 178.015,190.003 179.230,190.388 180.000 C 190.774 180.770,191.219 182.120,191.378 183.000 C 191.537 183.880,191.900 184.870,192.183 185.200 C 192.467 185.530,192.825 186.520,192.979 187.400 C 193.133 188.280,193.492 189.363,193.777 189.806 C 194.062 190.249,194.433 191.239,194.601 192.006 C 194.769 192.773,195.243 194.027,195.653 194.794 C 196.064 195.561,196.401 196.551,196.402 196.994 C 196.404 197.437,196.676 198.320,197.007 198.955 C 197.338 199.590,197.860 201.120,198.167 202.355 C 199.039 205.870,200.180 208.585,200.838 208.712 C 201.711 208.880,203.879 203.912,205.337 198.400 C 205.599 197.410,206.019 196.237,206.271 195.793 C 206.523 195.349,206.854 194.320,207.006 193.507 C 207.159 192.694,207.521 191.832,207.811 191.591 C 208.100 191.351,208.456 190.455,208.600 189.600 C 208.744 188.746,209.208 187.368,209.631 186.539 C 210.054 185.709,210.400 184.798,210.400 184.514 C 210.400 184.230,210.760 183.325,211.200 182.504 C 211.640 181.684,212.000 180.682,212.000 180.280 C 212.000 179.877,212.212 179.154,212.471 178.674 C 213.071 177.560,214.692 173.143,215.363 170.791 C 215.647 169.796,216.078 168.626,216.320 168.191 C 216.561 167.756,216.946 166.320,217.175 165.000 C 217.403 163.680,217.804 161.855,218.066 160.945 C 219.345 156.494,215.549 153.200,209.142 153.200 C 205.025 153.200,203.598 152.059,205.429 150.229 C 206.103 149.554,238.047 149.248,239.046 149.906 C 241.093 151.254,239.799 152.889,236.397 153.252 C 234.821 153.421,233.322 153.723,233.066 153.924 C 232.810 154.125,231.957 154.387,231.172 154.508 C 229.531 154.759,227.128 156.275,225.904 157.831 C 224.888 159.123,222.830 163.188,222.813 163.938 C 222.806 164.234,222.532 164.954,222.205 165.538 C 221.878 166.122,221.338 167.365,221.005 168.300 C 219.620 172.190,219.135 173.464,218.582 174.660 C 218.262 175.354,218.000 176.119,218.000 176.362 C 218.000 176.604,217.640 177.475,217.200 178.296 C 216.760 179.116,216.400 180.106,216.400 180.496 C 216.400 180.885,216.040 181.875,215.600 182.696 C 215.160 183.516,214.800 184.412,214.800 184.686 C 214.800 184.960,214.105 186.942,213.255 189.092 C 211.700 193.024,210.159 197.128,208.709 201.200 C 208.278 202.410,207.582 204.066,207.163 204.879 C 206.743 205.693,206.400 206.685,206.400 207.085 C 206.400 207.485,206.064 208.439,205.653 209.206 C 205.243 209.973,204.770 211.230,204.602 212.000 C 204.435 212.770,204.051 213.755,203.749 214.189 C 203.447 214.623,203.200 215.241,203.200 215.563 C 203.200 215.884,202.872 216.879,202.471 217.774 C 201.697 219.502,201.258 220.650,199.786 224.800 C 199.279 226.230,198.472 228.390,197.994 229.600 C 196.165 234.225,195.132 237.057,194.711 238.600 C 194.471 239.480,194.032 240.555,193.737 240.989 C 193.442 241.423,193.200 242.056,193.200 242.395 C 193.200 242.734,192.840 243.684,192.400 244.504 C 191.960 245.325,191.600 246.255,191.600 246.570 C 191.600 248.060,190.486 248.400,185.597 248.400 C 180.586 248.400,178.800 248.028,178.800 246.984 C 178.800 246.634,178.465 245.505,178.056 244.474 C 177.646 243.443,176.674 240.710,175.895 238.400 C 175.116 236.090,174.260 233.570,173.992 232.800 C 173.724 232.030,173.197 230.500,172.822 229.400 C 172.446 228.300,171.825 226.500,171.442 225.400 C 171.059 224.300,170.569 222.687,170.352 221.816 C 170.135 220.944,169.764 219.998,169.527 219.712 C 169.289 219.426,168.938 218.352,168.747 217.326 C 168.555 216.300,168.153 215.177,167.852 214.830 C 167.552 214.484,167.184 213.395,167.034 212.410 C 166.884 211.426,166.524 210.346,166.234 210.010 C 165.944 209.675,165.588 208.622,165.444 207.672 C 165.300 206.721,164.929 205.551,164.620 205.072 C 164.312 204.592,163.934 203.480,163.781 202.600 C 163.628 201.720,163.165 200.439,162.751 199.753 C 162.338 199.067,162.000 197.966,162.000 197.307 C 162.000 196.647,161.640 195.650,161.200 195.091 C 160.760 194.531,160.399 193.562,160.399 192.937 C 160.398 192.312,160.038 191.211,159.599 190.490 C 159.159 189.770,158.800 188.773,158.800 188.275 C 158.800 187.777,158.440 186.663,158.000 185.800 C 157.560 184.937,157.200 183.897,157.200 183.489 C 157.200 179.711,154.267 181.113,153.013 185.490 C 152.712 186.540,152.102 188.390,151.657 189.600 C 149.198 196.288,148.325 198.720,147.997 199.800 C 147.359 201.895,145.787 206.181,145.466 206.697 C 145.295 206.971,144.911 208.051,144.610 209.097 C 143.722 212.195,142.772 214.932,142.214 216.000 C 141.927 216.550,141.558 217.630,141.393 218.400 C 141.228 219.170,140.757 220.427,140.347 221.194 C 139.936 221.961,139.600 222.958,139.600 223.409 C 139.600 223.861,139.240 224.937,138.800 225.800 C 138.360 226.663,138.000 227.610,138.000 227.904 C 138.000 228.199,137.701 229.016,137.337 229.720 C 136.972 230.424,136.538 231.540,136.373 232.200 C 136.208 232.860,135.500 234.930,134.800 236.800 C 134.100 238.670,133.303 240.920,133.029 241.800 C 132.756 242.680,132.232 244.069,131.866 244.887 C 131.500 245.705,131.200 246.718,131.200 247.137 C 131.200 248.159,129.827 248.400,123.998 248.400 L 119.295 248.400 118.254 246.300 C 117.682 245.145,117.041 243.480,116.831 242.600 C 116.622 241.720,116.006 239.830,115.464 238.400 C 114.921 236.970,114.252 235.170,113.978 234.400 C 113.703 233.630,113.146 232.157,112.739 231.126 C 112.333 230.095,112.000 228.904,112.000 228.480 C 112.000 228.055,111.640 227.250,111.200 226.691 C 110.760 226.131,110.400 225.183,110.400 224.584 C 110.400 223.985,110.062 222.933,109.649 222.247 C 109.235 221.561,108.772 220.299,108.620 219.442 C 108.467 218.584,108.103 217.504,107.810 217.042 C 107.518 216.579,107.153 215.570,107.000 214.800 C 106.847 214.030,106.493 213.037,106.213 212.594 C 105.934 212.151,105.574 211.161,105.413 210.394 C 105.253 209.627,104.873 208.608,104.570 208.128 C 104.267 207.649,103.902 206.527,103.759 205.636 C 103.617 204.744,103.257 203.814,102.961 203.567 C 102.664 203.321,102.318 202.463,102.192 201.660 C 102.066 200.857,101.635 199.480,101.235 198.600 C 100.494 196.970,99.588 194.429,98.596 191.200 C 97.565 187.842,96.405 184.688,96.037 184.243 C 95.836 183.999,95.539 183.080,95.378 182.200 C 95.216 181.320,94.750 180.171,94.342 179.646 C 93.934 179.121,93.600 178.108,93.600 177.395 C 93.600 176.682,93.335 175.878,93.011 175.609 C 92.686 175.340,92.315 174.463,92.185 173.660 C 92.056 172.857,91.601 171.460,91.175 170.556 C 90.749 169.652,90.394 168.752,90.386 168.556 C 90.379 168.360,90.025 167.480,89.600 166.600 C 89.175 165.720,88.821 164.791,88.814 164.536 C 88.797 163.958,86.833 159.813,85.812 158.200 C 83.759 154.957,81.752 153.748,77.544 153.219 C 75.981 153.023,74.522 152.682,74.301 152.461 C 73.638 151.798,74.306 150.074,75.301 149.882 C 77.661 149.428,132.256 149.616,132.720 150.080 M303.000 149.949 C 303.983 150.158,304.222 150.428,304.321 151.449 C 304.471 152.985,303.905 153.187,299.441 153.195 C 294.787 153.203,292.064 154.285,290.778 156.640 L 289.800 158.430 289.800 198.348 L 289.800 238.265 290.729 240.232 C 292.097 243.127,292.742 243.451,298.116 243.942 C 303.735 244.455,304.493 244.771,304.323 246.527 L 304.200 247.800 272.405 247.800 C 237.237 247.800,239.912 248.000,240.559 245.423 C 240.774 244.564,241.100 244.479,245.894 244.019 C 251.914 243.442,253.029 242.895,254.460 239.820 L 255.400 237.800 255.400 198.600 L 255.400 159.400 254.200 157.215 C 252.738 154.551,250.833 153.676,245.604 153.266 C 241.948 152.980,241.630 152.729,242.172 150.568 L 242.415 149.600 272.108 149.647 C 288.438 149.673,302.340 149.809,303.000 149.949 M140.200 154.600 C 141.852 154.985,143.362 155.611,143.882 156.126 C 144.763 156.998,148.000 162.957,148.000 163.705 C 148.000 164.103,149.576 167.976,150.644 170.203 C 152.407 173.878,152.413 176.912,150.665 180.280 C 150.299 180.984,150.000 181.936,150.000 182.396 C 150.000 182.856,149.640 183.938,149.200 184.800 C 148.760 185.662,148.399 186.600,148.398 186.884 C 148.396 187.168,148.127 187.915,147.799 188.544 C 147.471 189.173,146.940 190.613,146.620 191.744 C 146.050 193.758,145.490 195.356,143.377 201.000 C 142.801 202.540,142.050 204.576,141.709 205.525 C 141.368 206.473,140.936 207.096,140.750 206.910 C 140.427 206.587,138.179 200.648,136.924 196.800 C 136.601 195.810,136.097 194.550,135.805 194.000 C 135.513 193.450,135.146 192.323,134.991 191.496 C 134.836 190.668,134.554 189.895,134.365 189.778 C 134.176 189.661,133.752 188.718,133.424 187.683 C 133.096 186.647,131.995 183.460,130.978 180.600 C 129.960 177.740,128.855 174.420,128.522 173.222 C 128.189 172.024,127.685 170.674,127.403 170.222 C 127.121 169.770,126.766 168.699,126.616 167.842 C 126.465 166.984,126.097 165.904,125.797 165.442 C 125.113 164.384,123.798 157.103,124.134 156.229 C 124.498 155.280,127.425 154.164,130.330 153.866 C 131.722 153.723,133.134 153.453,133.468 153.266 C 133.826 153.066,134.757 153.135,135.738 153.436 C 136.652 153.717,138.660 154.240,140.200 154.600 " stroke="none" fill="#186484" fill-rule="evenodd"></path><path id="path4" d="M73.523 148.099 C 72.766 148.697,72.272 151.152,72.626 152.560 C 73.022 154.137,75.315 155.240,78.738 155.499 C 81.334 155.695,81.828 155.862,82.697 156.839 C 83.788 158.063,87.600 165.418,87.600 166.299 C 87.600 166.797,88.092 167.960,90.445 173.026 C 90.860 173.921,91.200 175.111,91.200 175.672 C 91.200 176.233,91.560 177.150,92.000 177.709 C 92.440 178.269,92.801 179.238,92.801 179.863 C 92.802 180.488,93.162 181.589,93.601 182.310 C 94.041 183.030,94.400 184.131,94.400 184.756 C 94.400 185.381,94.760 186.350,95.200 186.909 C 95.650 187.481,96.000 188.532,96.000 189.309 C 96.000 190.086,96.350 191.138,96.800 191.709 C 97.240 192.269,97.600 193.150,97.600 193.669 C 97.600 194.188,97.960 195.284,98.400 196.104 C 98.840 196.925,99.200 197.893,99.200 198.255 C 99.200 198.616,99.533 199.652,99.940 200.556 C 100.812 202.493,101.860 205.448,102.614 208.100 C 102.912 209.145,103.435 210.400,103.777 210.889 C 104.120 211.378,104.400 212.254,104.400 212.835 C 104.400 213.416,104.735 214.321,105.144 214.846 C 105.553 215.371,106.012 216.640,106.163 217.667 C 106.315 218.694,106.700 219.751,107.020 220.016 C 107.339 220.281,107.600 220.917,107.600 221.430 C 107.600 222.542,108.391 224.400,108.864 224.400 C 109.049 224.400,109.200 224.992,109.200 225.715 C 109.200 226.439,109.560 227.737,110.000 228.600 C 110.440 229.463,110.800 230.543,110.800 231.000 C 110.800 231.457,111.150 232.516,111.577 233.354 C 112.004 234.192,112.473 235.446,112.620 236.139 C 112.766 236.833,113.227 237.961,113.643 238.647 C 114.059 239.333,114.400 240.434,114.400 241.093 C 114.400 241.753,114.760 242.750,115.200 243.309 C 115.640 243.869,116.000 244.769,116.000 245.309 C 116.000 245.850,116.322 246.721,116.716 247.246 C 117.110 247.771,117.646 248.695,117.907 249.300 L 118.383 250.400 124.559 250.400 C 130.873 250.400,131.991 250.259,132.013 249.457 C 132.019 249.206,132.468 248.100,133.009 247.000 C 133.550 245.900,133.996 244.640,133.999 244.200 C 134.002 243.760,134.363 242.860,134.800 242.200 C 135.237 241.540,135.596 240.678,135.597 240.284 C 135.599 239.890,135.945 238.892,136.367 238.065 C 136.788 237.239,137.259 235.894,137.412 235.077 C 137.565 234.260,138.030 232.925,138.445 232.111 C 138.860 231.297,139.200 230.278,139.200 229.847 C 139.200 229.416,139.485 228.748,139.834 228.363 C 140.183 227.977,140.566 226.883,140.686 225.931 C 140.807 224.979,141.167 223.899,141.486 223.531 C 141.806 223.163,142.164 222.083,142.281 221.131 C 142.398 220.179,142.758 219.189,143.081 218.931 C 143.404 218.673,143.769 217.683,143.894 216.731 C 144.018 215.779,144.453 214.571,144.860 214.046 C 145.267 213.521,145.600 212.581,145.600 211.956 C 145.600 211.331,145.959 210.230,146.399 209.510 C 146.838 208.789,147.198 207.865,147.199 207.454 C 147.199 207.044,147.544 206.054,147.964 205.254 C 148.725 203.807,149.585 201.433,150.593 198.000 C 150.884 197.010,151.408 195.660,151.758 195.000 C 152.109 194.340,152.396 193.437,152.398 192.994 C 152.399 192.551,152.760 191.516,153.200 190.696 C 153.640 189.875,154.000 188.792,154.000 188.290 C 154.000 187.789,154.289 186.966,154.642 186.461 C 154.995 185.957,155.430 185.062,155.608 184.472 C 155.914 183.457,155.933 183.477,155.966 184.846 C 155.985 185.641,156.360 186.750,156.800 187.309 C 157.250 187.881,157.600 188.932,157.600 189.709 C 157.600 190.486,157.950 191.538,158.400 192.109 C 158.840 192.669,159.200 193.645,159.200 194.279 C 159.200 194.912,159.560 196.137,160.000 197.000 C 160.440 197.863,160.800 198.924,160.800 199.358 C 160.800 199.792,161.131 200.879,161.536 201.774 C 161.940 202.668,162.464 204.120,162.700 205.000 C 163.161 206.719,164.103 209.508,165.200 212.400 C 166.394 215.548,167.256 218.145,167.735 220.041 C 167.991 221.054,168.405 222.134,168.655 222.441 C 168.905 222.749,169.239 223.810,169.398 224.800 C 169.557 225.790,169.918 226.870,170.200 227.200 C 170.482 227.530,170.846 228.609,171.008 229.598 C 171.171 230.587,171.640 232.024,172.052 232.792 C 172.463 233.560,172.800 234.664,172.800 235.245 C 172.800 235.826,173.047 236.507,173.349 236.758 C 173.651 237.009,174.111 238.291,174.369 239.607 C 174.628 240.923,174.995 242.000,175.185 242.000 C 175.375 242.000,175.644 242.675,175.784 243.500 C 175.923 244.325,176.623 246.170,177.339 247.600 L 178.640 250.200 185.043 250.310 L 191.445 250.419 192.507 248.798 C 193.090 247.906,193.691 246.507,193.842 245.688 C 193.993 244.870,194.450 243.771,194.858 243.246 C 195.266 242.721,195.600 241.746,195.600 241.078 C 195.600 240.410,195.886 239.547,196.236 239.161 C 196.585 238.775,197.018 237.860,197.198 237.129 C 197.520 235.819,198.637 232.956,200.068 229.774 C 200.471 228.879,200.800 227.686,200.800 227.123 C 200.800 226.559,201.065 225.878,201.389 225.609 C 201.714 225.340,202.095 224.463,202.238 223.660 C 202.381 222.857,202.835 221.639,203.249 220.953 C 203.662 220.267,204.000 219.291,204.000 218.784 C 204.000 218.278,204.291 217.541,204.647 217.148 C 205.003 216.754,205.386 215.623,205.497 214.633 C 205.615 213.592,206.016 212.547,206.450 212.155 C 206.863 211.781,207.200 210.947,207.200 210.301 C 207.200 209.655,207.560 208.669,208.000 208.109 C 208.440 207.550,208.801 206.711,208.801 206.246 C 208.802 205.781,209.135 204.856,209.540 204.192 C 209.945 203.527,210.409 202.278,210.571 201.414 C 210.733 200.551,211.191 199.205,211.589 198.422 C 211.987 197.640,212.531 196.370,212.799 195.600 C 214.154 191.698,214.454 190.922,214.960 190.000 C 215.262 189.450,215.634 188.245,215.786 187.323 C 215.938 186.401,216.318 185.434,216.631 185.174 C 216.944 184.914,217.200 184.250,217.200 183.698 C 217.200 183.146,217.538 182.133,217.951 181.447 C 218.365 180.761,218.819 179.543,218.962 178.740 C 219.105 177.937,219.478 177.068,219.791 176.807 C 220.104 176.547,220.479 175.545,220.624 174.580 C 220.769 173.615,221.133 172.622,221.433 172.373 C 221.733 172.124,222.096 171.263,222.240 170.460 C 222.384 169.657,222.732 168.730,223.013 168.400 C 223.295 168.070,223.740 166.995,224.002 166.012 C 224.264 165.028,224.731 163.863,225.039 163.423 C 225.348 162.982,225.600 162.339,225.600 161.992 C 225.600 161.646,225.915 160.950,226.300 160.445 C 228.210 157.943,228.913 157.200,229.374 157.200 C 229.650 157.200,230.178 156.866,230.548 156.458 C 231.085 155.864,232.014 155.671,235.186 155.497 C 237.853 155.350,239.449 155.071,240.054 154.647 C 240.850 154.090,241.031 154.085,241.608 154.608 C 242.052 155.009,243.628 155.283,246.513 155.459 C 253.913 155.912,253.600 153.972,253.600 199.365 C 253.600 238.561,253.425 240.870,250.423 241.350 C 249.587 241.484,248.678 241.864,248.403 242.196 C 248.016 242.663,246.967 242.800,243.780 242.800 C 239.081 242.800,238.635 243.026,238.195 245.627 C 237.950 247.077,238.049 247.407,239.034 248.435 L 240.150 249.600 272.395 249.600 C 308.600 249.600,305.600 249.907,305.600 246.200 C 305.600 242.900,305.443 242.800,300.283 242.800 C 296.532 242.800,295.785 242.689,294.909 242.000 C 294.350 241.560,293.590 241.200,293.221 241.200 C 290.432 241.200,290.264 159.298,293.048 156.400 C 293.457 155.974,295.178 155.679,298.973 155.382 C 302.256 155.125,304.568 154.759,304.960 154.433 C 305.976 153.590,305.866 148.571,304.820 148.011 C 303.149 147.117,204.031 147.670,203.368 148.576 C 202.379 149.929,202.698 154.000,203.794 154.000 C 204.073 154.000,204.510 154.250,204.764 154.557 C 205.083 154.942,206.705 155.202,210.022 155.401 C 215.897 155.754,216.000 155.844,216.000 160.604 C 216.000 163.041,215.804 164.215,215.200 165.400 C 214.760 166.263,214.400 167.431,214.400 167.996 C 214.400 168.560,214.140 169.394,213.822 169.848 C 213.504 170.302,213.030 171.519,212.770 172.554 C 212.510 173.588,211.960 175.094,211.548 175.901 C 211.137 176.709,210.800 177.849,210.800 178.436 C 210.800 179.022,210.539 179.719,210.220 179.984 C 209.900 180.249,209.520 181.261,209.374 182.233 C 209.228 183.205,208.967 184.000,208.794 184.000 C 208.387 184.000,207.600 186.253,207.600 187.417 C 207.600 187.911,207.337 188.415,207.016 188.538 C 206.669 188.672,206.324 189.579,206.165 190.781 C 206.017 191.892,205.769 192.800,205.613 192.800 C 205.175 192.800,204.400 194.723,204.400 195.809 C 204.400 196.343,204.041 197.370,203.601 198.090 C 203.162 198.811,202.802 199.692,202.801 200.049 C 202.801 200.406,202.417 201.564,201.949 202.621 L 201.099 204.544 200.317 202.572 C 199.888 201.487,199.289 199.790,198.986 198.800 C 197.866 195.134,196.715 192.182,196.165 191.569 C 195.854 191.221,195.600 190.394,195.600 189.730 C 195.600 189.059,195.268 188.223,194.850 187.845 C 194.409 187.446,194.014 186.402,193.891 185.308 C 193.776 184.285,193.421 183.258,193.103 183.024 C 192.785 182.791,192.428 181.738,192.310 180.684 C 192.191 179.630,191.827 178.460,191.500 178.084 C 191.174 177.708,190.788 176.622,190.644 175.672 C 190.500 174.721,190.133 173.551,189.829 173.072 C 189.525 172.592,189.156 171.445,189.007 170.523 C 188.859 169.601,188.501 168.650,188.212 168.410 C 187.923 168.170,187.560 167.127,187.405 166.092 C 187.250 165.057,186.889 163.758,186.603 163.205 C 185.856 161.761,185.467 157.986,185.937 156.757 C 186.318 155.764,186.520 155.701,190.180 155.432 C 194.545 155.112,196.245 154.638,196.808 153.584 C 197.466 152.356,197.267 149.771,196.435 148.744 L 195.671 147.800 134.913 147.699 C 86.717 147.619,74.025 147.701,73.523 148.099 M195.040 148.708 C 197.623 150.422,196.392 153.988,193.211 154.009 C 191.861 154.018,186.397 155.307,185.587 155.808 C 184.960 156.195,185.144 161.408,185.857 163.486 C 186.219 164.539,186.655 165.940,186.826 166.600 C 187.351 168.625,190.843 178.524,191.439 179.675 C 191.748 180.272,192.001 181.174,192.003 181.680 C 192.004 182.186,192.363 183.140,192.800 183.800 C 193.237 184.460,193.596 185.504,193.597 186.121 C 193.599 186.737,193.946 187.907,194.368 188.721 C 194.791 189.534,195.626 191.550,196.223 193.200 C 196.820 194.850,197.554 196.767,197.854 197.460 C 198.154 198.154,198.399 198.874,198.398 199.060 C 198.395 199.679,200.510 206.193,200.831 206.553 C 201.173 206.937,202.176 204.848,203.017 202.000 C 203.668 199.798,204.688 196.801,205.604 194.400 C 206.462 192.152,207.121 190.312,207.894 188.000 C 208.226 187.010,208.835 185.468,209.248 184.574 C 209.662 183.679,210.000 182.732,210.000 182.468 C 210.000 182.205,210.184 181.677,210.408 181.295 C 210.632 180.913,211.152 179.610,211.563 178.400 C 211.973 177.190,212.537 175.570,212.815 174.800 C 213.093 174.030,213.625 172.500,213.996 171.400 C 214.367 170.300,214.990 168.500,215.380 167.400 C 217.014 162.795,217.161 156.435,215.652 155.628 C 214.776 155.159,208.276 154.007,206.400 153.989 C 203.808 153.963,202.433 150.824,204.229 149.029 C 205.148 148.109,239.629 148.072,240.391 148.989 C 240.821 149.507,240.950 149.507,241.468 148.989 C 242.517 147.940,304.222 148.120,304.786 149.174 C 305.982 151.409,305.062 154.000,303.071 154.000 C 302.429 154.000,299.999 154.283,297.672 154.628 C 289.974 155.771,290.600 151.860,290.600 198.800 C 290.600 246.119,289.898 242.703,299.719 243.183 C 304.988 243.440,305.184 243.549,305.194 246.220 C 305.204 248.969,307.359 248.800,272.349 248.800 C 236.472 248.800,238.905 249.015,239.325 245.880 C 239.631 243.604,239.983 243.426,244.719 243.152 C 247.862 242.970,249.503 242.673,250.893 242.036 C 254.355 240.450,254.200 242.482,254.200 198.800 C 254.200 151.717,254.934 155.876,246.400 154.604 C 243.870 154.227,241.589 153.746,241.331 153.536 C 241.032 153.292,240.598 153.302,240.131 153.563 C 239.278 154.040,233.599 155.197,232.057 155.207 C 229.907 155.222,225.843 158.918,224.996 161.628 C 224.829 162.162,224.446 162.955,224.146 163.389 C 223.846 163.823,223.600 164.460,223.600 164.804 C 223.600 165.149,223.240 166.137,222.800 167.000 C 222.360 167.863,222.000 168.763,222.000 169.000 C 222.000 169.237,221.640 170.137,221.200 171.000 C 220.760 171.863,220.400 172.826,220.400 173.141 C 220.400 173.455,220.060 174.452,219.644 175.356 C 219.228 176.260,218.399 178.350,217.801 180.000 C 217.204 181.650,216.398 183.810,216.012 184.800 C 215.625 185.790,215.088 187.230,214.817 188.000 C 214.547 188.770,213.969 190.300,213.532 191.400 C 213.096 192.500,212.467 194.210,212.135 195.200 C 211.803 196.190,211.294 197.540,211.003 198.200 C 210.712 198.860,209.981 200.750,209.377 202.400 C 208.774 204.050,207.948 206.132,207.540 207.026 C 207.133 207.921,206.794 208.911,206.786 209.226 C 206.779 209.542,206.425 210.520,206.000 211.400 C 205.575 212.280,205.215 213.270,205.200 213.600 C 205.185 213.930,204.825 214.920,204.400 215.800 C 203.975 216.680,203.621 217.620,203.614 217.889 C 203.606 218.158,203.257 219.148,202.838 220.089 C 202.420 221.030,201.584 223.150,200.982 224.800 C 198.885 230.543,196.713 236.211,195.959 237.911 C 195.542 238.852,195.200 239.937,195.200 240.322 C 195.200 240.707,194.948 241.382,194.639 241.823 C 194.331 242.263,193.870 243.397,193.615 244.344 C 193.360 245.290,192.730 246.815,192.215 247.732 L 191.278 249.400 185.142 249.400 L 179.005 249.400 177.907 247.226 C 177.303 246.030,176.693 244.410,176.552 243.626 C 176.411 242.842,176.116 241.973,175.896 241.696 C 175.676 241.419,175.174 240.069,174.780 238.696 C 174.385 237.323,173.227 233.860,172.204 231.000 C 171.182 228.140,170.102 224.845,169.804 223.678 C 169.506 222.512,169.084 221.342,168.867 221.078 C 168.649 220.815,168.339 219.880,168.177 219.000 C 168.015 218.120,167.549 216.773,167.141 216.006 C 166.734 215.239,166.400 214.154,166.400 213.595 C 166.400 213.036,166.111 212.165,165.757 211.660 C 165.404 211.156,164.876 209.811,164.585 208.671 C 163.938 206.137,162.974 203.217,161.962 200.726 C 161.543 199.695,161.200 198.520,161.200 198.115 C 161.200 197.710,160.945 197.014,160.633 196.569 C 160.321 196.123,159.935 195.048,159.774 194.180 C 159.614 193.311,159.149 191.973,158.741 191.206 C 158.334 190.439,157.999 189.359,157.997 188.806 C 157.996 188.253,157.637 187.260,157.200 186.600 C 156.763 185.940,156.404 184.725,156.403 183.900 C 156.398 181.096,154.699 183.330,153.589 187.600 C 153.332 188.590,152.955 189.604,152.750 189.854 C 152.546 190.103,152.129 191.183,151.824 192.254 C 151.519 193.324,150.795 195.460,150.215 197.000 C 149.635 198.540,148.827 200.790,148.419 202.000 C 148.010 203.210,147.279 205.190,146.794 206.400 C 146.308 207.610,145.677 209.433,145.390 210.452 C 145.104 211.471,144.584 212.857,144.235 213.532 C 143.886 214.208,143.600 215.087,143.600 215.486 C 143.600 215.885,143.240 216.884,142.800 217.704 C 142.360 218.525,141.999 219.513,141.998 219.899 C 141.996 220.284,141.729 221.110,141.404 221.733 C 141.079 222.357,140.624 223.617,140.394 224.533 C 140.164 225.450,139.634 227.010,139.218 228.000 C 138.164 230.505,136.358 235.583,135.307 239.000 C 134.968 240.100,134.446 241.355,134.146 241.789 C 133.846 242.223,133.600 242.893,133.600 243.278 C 133.600 243.893,133.230 244.836,131.474 248.700 C 131.076 249.576,130.903 249.600,124.971 249.600 L 118.876 249.600 117.638 247.406 C 116.957 246.199,116.400 244.889,116.400 244.495 C 116.400 244.101,116.145 243.414,115.833 242.969 C 115.521 242.523,115.138 241.448,114.981 240.580 C 114.825 239.711,114.454 238.550,114.157 238.000 C 113.597 236.961,112.357 233.512,111.425 230.400 C 111.128 229.410,110.597 227.931,110.243 227.113 C 109.889 226.295,109.600 225.319,109.600 224.944 C 109.600 224.570,109.356 223.979,109.057 223.631 C 108.759 223.284,108.321 222.280,108.086 221.400 C 107.476 219.126,106.403 216.072,105.540 214.156 C 105.133 213.252,104.800 212.210,104.800 211.840 C 104.800 211.471,104.462 210.500,104.049 209.684 C 103.636 208.868,103.168 207.570,103.010 206.800 C 102.851 206.030,102.493 205.037,102.213 204.594 C 101.934 204.151,101.571 203.161,101.406 202.394 C 101.242 201.627,100.865 200.550,100.568 200.000 C 100.271 199.450,99.851 198.370,99.636 197.600 C 99.420 196.830,98.764 194.940,98.179 193.400 C 97.593 191.860,96.842 189.610,96.510 188.400 C 96.177 187.190,95.657 185.845,95.353 185.411 C 95.049 184.977,94.800 184.254,94.800 183.805 C 94.800 183.356,94.463 182.360,94.052 181.592 C 93.640 180.824,93.176 179.442,93.020 178.521 C 92.865 177.600,92.497 176.647,92.203 176.403 C 91.910 176.159,91.548 175.078,91.400 174.000 C 91.252 172.922,90.888 171.839,90.591 171.592 C 90.294 171.346,89.929 170.587,89.779 169.906 C 89.630 169.224,89.169 168.112,88.755 167.433 C 88.341 166.755,88.007 165.930,88.012 165.600 C 88.026 164.744,84.370 157.651,83.319 156.494 C 82.645 155.752,81.462 155.313,78.287 154.628 C 76.004 154.135,73.926 153.601,73.668 153.442 C 73.056 153.063,73.062 149.498,73.677 148.883 C 74.214 148.346,194.233 148.172,195.040 148.708 M130.704 154.230 C 125.926 155.182,124.906 155.553,124.678 156.422 C 124.365 157.621,125.432 164.166,126.120 165.260 C 126.444 165.777,126.837 166.920,126.991 167.800 C 127.145 168.680,127.449 169.615,127.666 169.877 C 127.883 170.140,128.307 171.220,128.609 172.277 C 129.441 175.197,130.736 178.918,131.187 179.686 C 131.409 180.064,131.763 181.054,131.975 181.886 C 132.531 184.067,133.929 188.035,134.553 189.200 C 134.848 189.750,135.205 190.813,135.347 191.562 C 135.489 192.311,135.827 193.191,136.098 193.518 C 136.369 193.844,136.799 194.852,137.053 195.756 C 137.449 197.162,138.749 200.779,140.515 205.389 L 140.971 206.579 141.473 204.846 C 141.749 203.893,142.151 202.900,142.366 202.641 C 142.582 202.381,142.936 201.456,143.154 200.584 C 143.372 199.713,144.030 197.740,144.617 196.200 C 145.203 194.660,145.919 192.567,146.206 191.548 C 146.494 190.529,147.016 189.143,147.365 188.468 C 147.714 187.792,148.001 187.006,148.002 186.720 C 148.004 186.434,148.271 185.690,148.596 185.067 C 148.921 184.443,149.379 183.183,149.613 182.267 C 149.847 181.350,150.411 179.707,150.867 178.616 C 151.806 176.364,151.711 173.237,150.643 171.313 C 149.832 169.851,148.000 165.340,148.000 164.804 C 148.000 162.418,143.140 155.202,141.531 155.197 C 141.019 155.196,139.104 154.836,137.275 154.397 C 135.446 153.959,133.826 153.621,133.675 153.647 C 133.524 153.672,132.187 153.935,130.704 154.230 M135.117 154.877 C 135.384 155.144,137.161 155.428,139.162 155.524 C 142.239 155.671,142.759 155.798,142.928 156.447 C 143.037 156.861,143.412 157.200,143.763 157.200 C 144.176 157.200,144.400 157.552,144.400 158.200 C 144.400 158.750,144.760 159.560,145.200 160.000 C 145.640 160.440,146.001 161.205,146.001 161.700 C 146.002 162.195,146.331 163.140,146.733 163.800 C 147.134 164.460,147.585 165.613,147.734 166.362 C 147.883 167.111,148.215 167.977,148.472 168.287 C 148.897 168.799,149.836 171.161,150.799 174.141 C 151.063 174.959,150.992 175.753,150.548 176.941 C 150.207 177.853,149.742 179.320,149.515 180.200 C 149.288 181.080,148.764 182.540,148.351 183.444 C 147.938 184.348,147.599 185.428,147.597 185.844 C 147.596 186.260,147.237 187.140,146.800 187.800 C 146.363 188.460,146.004 189.602,146.003 190.337 C 146.001 191.072,145.640 192.131,145.200 192.691 C 144.760 193.250,144.400 194.240,144.400 194.891 C 144.400 195.541,144.040 196.531,143.600 197.091 C 143.133 197.685,142.800 198.714,142.800 199.565 C 142.800 200.527,142.528 201.255,142.000 201.707 C 141.560 202.084,141.192 202.889,141.182 203.496 C 141.167 204.498,141.114 204.457,140.612 203.050 C 140.308 202.197,139.866 201.306,139.630 201.070 C 139.393 200.833,139.200 200.264,139.200 199.805 C 139.200 199.345,138.860 198.303,138.445 197.489 C 138.030 196.675,137.570 195.367,137.423 194.583 C 137.276 193.799,136.914 193.065,136.619 192.952 C 136.324 192.839,135.958 191.903,135.806 190.873 C 135.654 189.843,135.207 188.460,134.814 187.800 C 134.420 187.140,133.981 185.943,133.838 185.140 C 133.695 184.337,133.336 183.479,133.040 183.233 C 132.744 182.987,132.385 181.908,132.242 180.835 C 132.100 179.762,131.740 178.682,131.442 178.435 C 131.144 178.187,130.779 177.228,130.631 176.303 C 130.483 175.378,130.124 174.346,129.834 174.010 C 129.543 173.675,129.203 172.596,129.079 171.614 C 128.955 170.632,128.601 169.642,128.293 169.414 C 127.984 169.186,127.611 168.113,127.464 167.029 C 127.317 165.945,126.904 164.736,126.548 164.343 C 126.053 163.795,125.889 162.707,125.850 159.714 L 125.800 155.801 128.958 155.488 C 130.695 155.315,132.405 155.006,132.758 154.799 C 133.645 154.281,134.551 154.311,135.117 154.877 " stroke="none" fill="#0b8dca" fill-rule="evenodd"></path></g></svg>